<svg xmlns="http://www.w3.org/2000/svg" width="512" height="512" viewBox="0 0 512 512">
  <rect width="512" height="512" rx="112" fill="#0f172a"/>
  <path d="M107 362V150h90c58 0 96 29 96 77 0 28-14 50-39 63l61 72h-64l-48-58h-32v58H107Zm64-111h22c23 0 37-11 37-29s-14-28-37-28h-22v57Z" fill="#fff"/>
  <path d="M328 150h74c42 0 65 21 65 53 0 21-10 37-27 46 24 8 38 26 38 49 0 39-28 64-76 64h-74V150Zm63 82c16 0 27-8 27-21 0-12-11-18-27-18h-16v39h16Zm6 91c22 0 34-10 34-27 0-16-12-26-34-26h-22v53h22Z" fill="#38bdf8"/>
</svg>
